<?xml version="1.0" encoding="UTF-8"?>
<svg width="265px" height="65px" viewBox="0 0 265 65" version="1.1" xmlns="http://www.w3.org/2000/svg" xmlns:xlink="http://www.w3.org/1999/xlink">
    <title>Splash-screen</title>
    <g id="Symbols" stroke="none" stroke-width="1" fill="none" fill-rule="evenodd">
        <g id="Splash-screen" transform="translate(-74.000000, -416.000000)">
            <g transform="translate(74.000000, 416.000000)">
                <g id="AutomatID™-Copy-2" transform="translate(64.698544, 21.890599)" fill="#2E3A49" fill-rule="nonzero">
                    <path d="M16.57341,16.12386 L6.08391,16.12386 L4.01598,20.979 L0,20.979 L9.44055,0 L13.27671,0 L22.74723,20.979 L18.67131,20.979 L16.57341,16.12386 Z M15.2847,13.06692 L11.32866,3.8961 L7.40259,13.06692 L15.2847,13.06692 Z" id="Shape"></path>
                    <path d="M40.54941,4.97502 L40.54941,20.979 L36.98298,20.979 L36.98298,18.94104 C36.38358,19.66032 35.63433,20.214765 34.73523,20.604375 C33.83613,20.993985 32.8671,21.18879 31.82814,21.18879 C29.69028,21.18879 28.006965,20.594385 26.778195,19.405575 C25.549425,18.216765 24.93504,16.45353 24.93504,14.11587 L24.93504,4.97502 L28.68129,4.97502 L28.68129,13.60638 C28.68129,15.04494 29.005965,16.118865 29.655315,16.828155 C30.304665,17.537445 31.22874,17.89209 32.42754,17.89209 C33.7662,17.89209 34.830135,17.477505 35.619345,16.648335 C36.408555,15.819165 36.80316,14.62536 36.80316,13.06692 L36.80316,4.97502 L40.54941,4.97502 Z" id="Path"></path>
                    <path d="M55.08486,20.10987 C54.6453,20.46951 54.110835,20.73924 53.481465,20.91906 C52.852095,21.09888 52.18776,21.18879 51.48846,21.18879 C49.73022,21.18879 48.37158,20.72925 47.41254,19.81017 C46.4535,18.89109 45.97398,17.55243 45.97398,15.79419 L45.97398,8.0919 L43.33662,8.0919 L43.33662,5.0949 L45.97398,5.0949 L45.97398,1.43856 L49.72023,1.43856 L49.72023,5.0949 L54.00594,5.0949 L54.00594,8.0919 L49.72023,8.0919 L49.72023,15.70428 C49.72023,16.4835 49.91004,17.077905 50.28966,17.487495 C50.66928,17.897085 51.21873,18.10188 51.93801,18.10188 C52.77717,18.10188 53.47647,17.8821 54.03591,17.44254 L55.08486,20.10987 Z" id="Path"></path>
                    <path d="M65.36457,21.18879 C63.74619,21.18879 62.28765,20.83914 60.98895,20.13984 C59.69025,19.44054 58.676265,18.466515 57.946995,17.217765 C57.217725,15.969015 56.85309,14.55543 56.85309,12.97701 C56.85309,11.39859 57.217725,9.99 57.946995,8.75124 C58.676265,7.51248 59.69025,6.54345 60.98895,5.84415 C62.28765,5.14485 63.74619,4.7952 65.36457,4.7952 C67.00293,4.7952 68.47146,5.14485 69.77016,5.84415 C71.06886,6.54345 72.082845,7.51248 72.812115,8.75124 C73.541385,9.99 73.90602,11.39859 73.90602,12.97701 C73.90602,14.55543 73.541385,15.969015 72.812115,17.217765 C72.082845,18.466515 71.06886,19.44054 69.77016,20.13984 C68.47146,20.83914 67.00293,21.18879 65.36457,21.18879 Z M65.36457,17.982 C66.74319,17.982 67.88205,17.52246 68.78115,16.60338 C69.68025,15.6843 70.1298,14.47551 70.1298,12.97701 C70.1298,11.47851 69.68025,10.26972 68.78115,9.35064 C67.88205,8.43156 66.74319,7.97202 65.36457,7.97202 C63.98595,7.97202 62.852085,8.43156 61.962975,9.35064 C61.073865,10.26972 60.62931,11.47851 60.62931,12.97701 C60.62931,14.47551 61.073865,15.6843 61.962975,16.60338 C62.852085,17.52246 63.98595,17.982 65.36457,17.982 Z" id="Shape"></path>
                    <path d="M97.7022,4.7952 C99.72018,4.7952 101.31858,5.379615 102.4974,6.548445 C103.67622,7.717275 104.26563,9.47052 104.26563,11.80818 L104.26563,20.979 L100.51938,20.979 L100.51938,12.2877 C100.51938,10.8891 100.20969,9.835155 99.59031,9.125865 C98.97093,8.416575 98.08182,8.06193 96.92298,8.06193 C95.66424,8.06193 94.65525,8.476515 93.89601,9.305685 C93.13677,10.134855 92.75715,11.31867 92.75715,12.85713 L92.75715,20.979 L89.0109,20.979 L89.0109,12.2877 C89.0109,10.8891 88.70121,9.835155 88.08183,9.125865 C87.46245,8.416575 86.57334,8.06193 85.4145,8.06193 C84.13578,8.06193 83.121795,8.47152 82.372545,9.2907 C81.623295,10.10988 81.24867,11.29869 81.24867,12.85713 L81.24867,20.979 L77.50242,20.979 L77.50242,4.97502 L81.06885,4.97502 L81.06885,7.01298 C81.66825,6.2937 82.4175,5.74425 83.3166,5.36463 C84.2157,4.98501 85.2147,4.7952 86.3136,4.7952 C87.5124,4.7952 88.576335,5.019975 89.505405,5.469525 C90.434475,5.919075 91.16874,6.58341 91.7082,7.46253 C92.36754,6.62337 93.21669,5.969025 94.25565,5.499495 C95.29461,5.029965 96.44346,4.7952 97.7022,4.7952 Z" id="Path"></path>
                    <path d="M115.17471,4.7952 C117.53235,4.7952 119.335545,5.359635 120.584295,6.488505 C121.833045,7.617375 122.45742,9.32067 122.45742,11.59839 L122.45742,20.979 L118.92096,20.979 L118.92096,19.03095 C118.46142,19.73025 117.807075,20.264715 116.957925,20.634345 C116.108775,21.003975 115.0848,21.18879 113.886,21.18879 C112.6872,21.18879 111.63825,20.983995 110.73915,20.574405 C109.84005,20.164815 109.145745,19.595385 108.656235,18.866115 C108.166725,18.136845 107.92197,17.31267 107.92197,16.39359 C107.92197,14.95503 108.456435,13.801185 109.525365,12.932055 C110.594295,12.062925 112.27761,11.62836 114.57531,11.62836 L118.71117,11.62836 L118.71117,11.3886 C118.71117,10.26972 118.376505,9.41058 117.707175,8.81118 C117.037845,8.21178 116.04384,7.91208 114.72516,7.91208 C113.82606,7.91208 112.941945,8.05194 112.072815,8.33166 C111.203685,8.61138 110.46942,9.00099 109.87002,9.50049 L108.40149,6.77322 C109.24065,6.13386 110.24964,5.64435 111.42846,5.30469 C112.60728,4.96503 113.85603,4.7952 115.17471,4.7952 Z M114.66522,18.46152 C115.60428,18.46152 116.438445,18.246735 117.167715,17.817165 C117.896985,17.387595 118.41147,16.77321 118.71117,15.97401 L118.71117,14.11587 L114.84504,14.11587 C112.6872,14.11587 111.60828,14.82516 111.60828,16.24374 C111.60828,16.92306 111.87801,17.46252 112.41747,17.86212 C112.95693,18.26172 113.70618,18.46152 114.66522,18.46152 Z" id="Shape"></path>
                    <path d="M136.87299,20.10987 C136.43343,20.46951 135.898965,20.73924 135.269595,20.91906 C134.640225,21.09888 133.97589,21.18879 133.27659,21.18879 C131.51835,21.18879 130.15971,20.72925 129.20067,19.81017 C128.24163,18.89109 127.76211,17.55243 127.76211,15.79419 L127.76211,8.0919 L125.12475,8.0919 L125.12475,5.0949 L127.76211,5.0949 L127.76211,1.43856 L131.50836,1.43856 L131.50836,5.0949 L135.79407,5.0949 L135.79407,8.0919 L131.50836,8.0919 L131.50836,15.70428 C131.50836,16.4835 131.69817,17.077905 132.07779,17.487495 C132.45741,17.897085 133.00686,18.10188 133.72614,18.10188 C134.5653,18.10188 135.2646,17.8821 135.82404,17.44254 L136.87299,20.10987 Z" id="Path"></path>
                    <polygon id="Path" points="140.31954 0 144.21564 0 144.21564 20.979 140.31954 20.979"></polygon>
                    <path d="M149.87997,0 L159.05079,0 C161.28855,0 163.27656,0.434565 165.01482,1.303695 C166.75308,2.172825 168.10173,3.401595 169.06077,4.990005 C170.01981,6.578415 170.49933,8.41158 170.49933,10.4895 C170.49933,12.56742 170.01981,14.400585 169.06077,15.988995 C168.10173,17.577405 166.75308,18.806175 165.01482,19.675305 C163.27656,20.544435 161.28855,20.979 159.05079,20.979 L149.87997,20.979 L149.87997,0 Z M158.87097,17.6823 C160.40943,17.6823 161.763075,17.387595 162.931905,16.798185 C164.100735,16.208775 164.999835,15.369615 165.629205,14.280705 C166.258575,13.191795 166.57326,11.92806 166.57326,10.4895 C166.57326,9.05094 166.258575,7.787205 165.629205,6.698295 C164.999835,5.609385 164.100735,4.770225 162.931905,4.180815 C161.763075,3.591405 160.40943,3.2967 158.87097,3.2967 L153.77607,3.2967 L153.77607,17.6823 L158.87097,17.6823 Z" id="Shape"></path>
                    <path d="M171.93789,0 L183.44637,0 L183.44637,2.18781 L179.07075,2.18781 L179.07075,12.43755 L176.31351,12.43755 L176.31351,2.18781 L171.93789,2.18781 L171.93789,0 Z M197.47233,12.43755 L197.44236,4.58541 L193.24656,11.05893 L191.98782,11.05893 L187.76205,4.73526 L187.76205,12.43755 L185.15466,12.43755 L185.15466,0 L187.37244,0 L192.64716,7.97202 L197.83197,0 L200.04975,0 L200.07972,12.43755 L197.47233,12.43755 Z" id="Shape"></path>
                </g>
                <g id="Group">
                    <rect id="Rectangle" x="0" y="0" width="64.8483943" height="65"></rect>
                    <g id="Group-3" transform="translate(12.969679, 11.375000)">
                        <path d="M19.0492158,0 C29.5698072,-1.93260129e-15 38.0984317,8.52862443 38.0984317,19.0492158 L38.0984317,41.4375 L30.478,41.437 L30.4787453,40.6795295 C30.4787453,34.4658052 25.5202331,29.4102035 19.3442171,29.253733 L19.0492158,29.25 C12.736861,29.25 7.61968633,34.3671747 7.61968633,40.6795295 L7.61968633,40.6795295 L7.619,41.437 L0,41.4375 L0,19.0492158 C-1.28840086e-15,8.52862443 8.52862443,1.93260129e-15 19.0492158,0 Z M19.0492158,13.3823529 C15.8930384,13.3823529 13.3344511,15.9501316 13.3344511,19.1176471 C13.3344511,22.2851625 15.8930384,24.8529412 19.0492158,24.8529412 C22.2053933,24.8529412 24.7639806,22.2851625 24.7639806,19.1176471 C24.7639806,15.9501316 22.2053933,13.3823529 19.0492158,13.3823529 Z" id="Combined-Shape-Copy-5" fill="#1966A4"></path>
                        <path d="M18.9885842,4.0625 C21.6274231,4.0625 24.2662621,4.77535034 26.6082705,6.20105102 C31.338341,9.08048761 34.2279569,14.2360509 34.2279569,19.79586" id="Path" stroke="#FFFFFF" stroke-width="2.43"></path>
                        <path d="M19.4545183,9.49168001 C21.089813,9.49168001 22.7251076,9.93343503 24.1764557,10.8169451 C27.1076915,12.6013387 28.8983932,15.7962533 28.8983932,19.24168" id="Path-Copy" stroke="#FFFFFF" stroke-width="2.43"></path>
                    </g>
                </g>
            </g>
        </g>
    </g>
</svg>