<?xml version="1.0" encoding="UTF-8"?>
<svg width="18.99995px" height="18.99995px" viewBox="0 0 18.99995 18.99995" version="1.1" xmlns="http://www.w3.org/2000/svg" xmlns:xlink="http://www.w3.org/1999/xlink">
    <title>check_circle_FILL0_wght300_GRAD0_opsz24</title>
    <g id="Page-1" stroke="none" stroke-width="1" fill="none" fill-rule="evenodd">
        <g id="check_circle_FILL0_wght300_GRAD0_opsz24" transform="translate(0.000000, 0.000000)" fill="#FFFFFF" fill-rule="nonzero">
            <path d="M8.08075,13.7538 L14.8038,7.03075 L13.749975,5.976925 L8.08075,11.64615 L5.23075,8.79615 L4.176925,9.849975 L8.08075,13.7538 Z M9.50165,18.99995 C8.18771667,18.99995 6.95268333,18.7506167 5.79655,18.25195 C4.6404,17.7532833 3.63471667,17.0765333 2.7795,16.2217 C1.92426667,15.36685 1.24720833,14.3616083 0.748325,13.205975 C0.249441667,12.0503583 0,10.8155833 0,9.50165 C0,8.18771667 0.249333333,6.95268333 0.748,5.79655 C1.24666667,4.6404 1.92341667,3.63471667 2.77825,2.7795 C3.6331,1.92426667 4.63834167,1.24720833 5.793975,0.748325 C6.94959167,0.249441667 8.18436667,0 9.4983,0 C10.8122333,0 12.0472667,0.249333333 13.2034,0.748 C14.35955,1.24666667 15.3652333,1.92341667 16.22045,2.77825 C17.0756833,3.6331 17.7527417,4.63834167 18.251625,5.793975 C18.7505083,6.94959167 18.99995,8.18436667 18.99995,9.4983 C18.99995,10.8122333 18.7506167,12.0472667 18.25195,13.2034 C17.7532833,14.35955 17.0765333,15.3652333 16.2217,16.22045 C15.36685,17.0756833 14.3616083,17.7527417 13.205975,18.251625 C12.0503583,18.7505083 10.8155833,18.99995 9.50165,18.99995 L9.50165,18.99995 Z M9.499975,17.499975 C11.7333083,17.499975 13.624975,16.724975 15.174975,15.174975 C16.724975,13.624975 17.499975,11.7333083 17.499975,9.499975 C17.499975,7.26664167 16.724975,5.374975 15.174975,3.824975 C13.624975,2.274975 11.7333083,1.499975 9.499975,1.499975 C7.26664167,1.499975 5.374975,2.274975 3.824975,3.824975 C2.274975,5.374975 1.499975,7.26664167 1.499975,9.499975 C1.499975,11.7333083 2.274975,13.624975 3.824975,15.174975 C5.374975,16.724975 7.26664167,17.499975 9.499975,17.499975 Z" id="Shape"></path>
        </g>
    </g>
</svg>